<mxfile host="app.diagrams.net" agent="Mozilla/5.0 (Windows NT 10.0; Win64; x64) AppleWebKit/537.36 (KHTML, like Gecko) Chrome/131.0.0.0 Safari/537.36" version="25.0.1">
  <diagram name="Страница — 1" id="M_jzQXmH7S2AjxUuForW">
    <mxGraphModel dx="1746" dy="2368" grid="1" gridSize="10" guides="1" tooltips="1" connect="1" arrows="1" fold="1" page="1" pageScale="1" pageWidth="827" pageHeight="1169" math="0" shadow="0">
      <root>
        <mxCell id="0" />
        <mxCell id="1" parent="0" />
        <mxCell id="CVCiPec276KEIEZ4r-IQ-117" value="Пользователь" style="shape=umlLifeline;perimeter=lifelinePerimeter;whiteSpace=wrap;html=1;container=1;dropTarget=0;collapsible=0;recursiveResize=0;outlineConnect=0;portConstraint=eastwest;newEdgeStyle={&quot;curved&quot;:0,&quot;rounded&quot;:0};" parent="1" vertex="1">
          <mxGeometry x="1130" y="40" width="100" height="80" as="geometry" />
        </mxCell>
        <mxCell id="CVCiPec276KEIEZ4r-IQ-118" value="Сайт" style="shape=umlLifeline;perimeter=lifelinePerimeter;whiteSpace=wrap;html=1;container=1;dropTarget=0;collapsible=0;recursiveResize=0;outlineConnect=0;portConstraint=eastwest;newEdgeStyle={&quot;curved&quot;:0,&quot;rounded&quot;:0};" parent="1" vertex="1">
          <mxGeometry x="1400" y="40" width="100" height="1360" as="geometry" />
        </mxCell>
        <mxCell id="CVCiPec276KEIEZ4r-IQ-129" value="" style="html=1;points=[[0,0,0,0,5],[0,1,0,0,-5],[1,0,0,0,5],[1,1,0,0,-5]];perimeter=orthogonalPerimeter;outlineConnect=0;targetShapes=umlLifeline;portConstraint=eastwest;newEdgeStyle={&quot;curved&quot;:0,&quot;rounded&quot;:0};" parent="CVCiPec276KEIEZ4r-IQ-118" vertex="1">
          <mxGeometry x="45" y="60" width="10" height="100" as="geometry" />
        </mxCell>
        <mxCell id="CVCiPec276KEIEZ4r-IQ-142" value="" style="html=1;points=[[0,0,0,0,5],[0,1,0,0,-5],[1,0,0,0,5],[1,1,0,0,-5]];perimeter=orthogonalPerimeter;outlineConnect=0;targetShapes=umlLifeline;portConstraint=eastwest;newEdgeStyle={&quot;curved&quot;:0,&quot;rounded&quot;:0};" parent="CVCiPec276KEIEZ4r-IQ-118" vertex="1">
          <mxGeometry x="45" y="310" width="10" height="80" as="geometry" />
        </mxCell>
        <mxCell id="CVCiPec276KEIEZ4r-IQ-149" value="" style="html=1;points=[[0,0,0,0,5],[0,1,0,0,-5],[1,0,0,0,5],[1,1,0,0,-5]];perimeter=orthogonalPerimeter;outlineConnect=0;targetShapes=umlLifeline;portConstraint=eastwest;newEdgeStyle={&quot;curved&quot;:0,&quot;rounded&quot;:0};" parent="CVCiPec276KEIEZ4r-IQ-118" vertex="1">
          <mxGeometry x="45" y="560" width="10" height="90" as="geometry" />
        </mxCell>
        <mxCell id="CVCiPec276KEIEZ4r-IQ-157" value="" style="html=1;points=[[0,0,0,0,5],[0,1,0,0,-5],[1,0,0,0,5],[1,1,0,0,-5]];perimeter=orthogonalPerimeter;outlineConnect=0;targetShapes=umlLifeline;portConstraint=eastwest;newEdgeStyle={&quot;curved&quot;:0,&quot;rounded&quot;:0};" parent="CVCiPec276KEIEZ4r-IQ-118" vertex="1">
          <mxGeometry x="45" y="690" width="10" height="80" as="geometry" />
        </mxCell>
        <mxCell id="CVCiPec276KEIEZ4r-IQ-163" value="" style="html=1;points=[[0,0,0,0,5],[0,1,0,0,-5],[1,0,0,0,5],[1,1,0,0,-5]];perimeter=orthogonalPerimeter;outlineConnect=0;targetShapes=umlLifeline;portConstraint=eastwest;newEdgeStyle={&quot;curved&quot;:0,&quot;rounded&quot;:0};" parent="CVCiPec276KEIEZ4r-IQ-118" vertex="1">
          <mxGeometry x="45" y="790" width="10" height="100" as="geometry" />
        </mxCell>
        <mxCell id="CVCiPec276KEIEZ4r-IQ-180" value="" style="html=1;points=[[0,0,0,0,5],[0,1,0,0,-5],[1,0,0,0,5],[1,1,0,0,-5]];perimeter=orthogonalPerimeter;outlineConnect=0;targetShapes=umlLifeline;portConstraint=eastwest;newEdgeStyle={&quot;curved&quot;:0,&quot;rounded&quot;:0};" parent="CVCiPec276KEIEZ4r-IQ-118" vertex="1">
          <mxGeometry x="45" y="930" width="10" height="110" as="geometry" />
        </mxCell>
        <mxCell id="CVCiPec276KEIEZ4r-IQ-194" value="" style="html=1;points=[[0,0,0,0,5],[0,1,0,0,-5],[1,0,0,0,5],[1,1,0,0,-5]];perimeter=orthogonalPerimeter;outlineConnect=0;targetShapes=umlLifeline;portConstraint=eastwest;newEdgeStyle={&quot;curved&quot;:0,&quot;rounded&quot;:0};" parent="CVCiPec276KEIEZ4r-IQ-118" vertex="1">
          <mxGeometry x="45" y="1070" width="10" height="80" as="geometry" />
        </mxCell>
        <mxCell id="CVCiPec276KEIEZ4r-IQ-200" value="" style="html=1;points=[[0,0,0,0,5],[0,1,0,0,-5],[1,0,0,0,5],[1,1,0,0,-5]];perimeter=orthogonalPerimeter;outlineConnect=0;targetShapes=umlLifeline;portConstraint=eastwest;newEdgeStyle={&quot;curved&quot;:0,&quot;rounded&quot;:0};" parent="CVCiPec276KEIEZ4r-IQ-118" vertex="1">
          <mxGeometry x="45" y="1170" width="10" height="40" as="geometry" />
        </mxCell>
        <mxCell id="CVCiPec276KEIEZ4r-IQ-221" value="" style="html=1;points=[[0,0,0,0,5],[0,1,0,0,-5],[1,0,0,0,5],[1,1,0,0,-5]];perimeter=orthogonalPerimeter;outlineConnect=0;targetShapes=umlLifeline;portConstraint=eastwest;newEdgeStyle={&quot;curved&quot;:0,&quot;rounded&quot;:0};" parent="CVCiPec276KEIEZ4r-IQ-118" vertex="1">
          <mxGeometry x="45" y="190" width="10" height="80" as="geometry" />
        </mxCell>
        <mxCell id="b9OQVoJCKVu9rGhb326X-2" value="" style="html=1;points=[[0,0,0,0,5],[0,1,0,0,-5],[1,0,0,0,5],[1,1,0,0,-5]];perimeter=orthogonalPerimeter;outlineConnect=0;targetShapes=umlLifeline;portConstraint=eastwest;newEdgeStyle={&quot;curved&quot;:0,&quot;rounded&quot;:0};" vertex="1" parent="CVCiPec276KEIEZ4r-IQ-118">
          <mxGeometry x="45" y="425" width="10" height="120" as="geometry" />
        </mxCell>
        <mxCell id="CVCiPec276KEIEZ4r-IQ-120" value="Платежная система" style="shape=umlLifeline;perimeter=lifelinePerimeter;whiteSpace=wrap;html=1;container=1;dropTarget=0;collapsible=0;recursiveResize=0;outlineConnect=0;portConstraint=eastwest;newEdgeStyle={&quot;curved&quot;:0,&quot;rounded&quot;:0};" parent="1" vertex="1">
          <mxGeometry x="1770" y="40" width="100" height="1360" as="geometry" />
        </mxCell>
        <mxCell id="CVCiPec276KEIEZ4r-IQ-150" value="" style="html=1;points=[[0,0,0,0,5],[0,1,0,0,-5],[1,0,0,0,5],[1,1,0,0,-5]];perimeter=orthogonalPerimeter;outlineConnect=0;targetShapes=umlLifeline;portConstraint=eastwest;newEdgeStyle={&quot;curved&quot;:0,&quot;rounded&quot;:0};" parent="CVCiPec276KEIEZ4r-IQ-120" vertex="1">
          <mxGeometry x="45" y="560" width="10" height="90" as="geometry" />
        </mxCell>
        <mxCell id="CVCiPec276KEIEZ4r-IQ-121" value="Сервис" style="shape=umlLifeline;perimeter=lifelinePerimeter;whiteSpace=wrap;html=1;container=1;dropTarget=0;collapsible=0;recursiveResize=0;outlineConnect=0;portConstraint=eastwest;newEdgeStyle={&quot;curved&quot;:0,&quot;rounded&quot;:0};" parent="1" vertex="1">
          <mxGeometry x="2000" y="40" width="100" height="1360" as="geometry" />
        </mxCell>
        <mxCell id="CVCiPec276KEIEZ4r-IQ-159" value="" style="html=1;points=[[0,0,0,0,5],[0,1,0,0,-5],[1,0,0,0,5],[1,1,0,0,-5]];perimeter=orthogonalPerimeter;outlineConnect=0;targetShapes=umlLifeline;portConstraint=eastwest;newEdgeStyle={&quot;curved&quot;:0,&quot;rounded&quot;:0};" parent="CVCiPec276KEIEZ4r-IQ-121" vertex="1">
          <mxGeometry x="45" y="690" width="10" height="80" as="geometry" />
        </mxCell>
        <mxCell id="CVCiPec276KEIEZ4r-IQ-164" value="" style="html=1;points=[[0,0,0,0,5],[0,1,0,0,-5],[1,0,0,0,5],[1,1,0,0,-5]];perimeter=orthogonalPerimeter;outlineConnect=0;targetShapes=umlLifeline;portConstraint=eastwest;newEdgeStyle={&quot;curved&quot;:0,&quot;rounded&quot;:0};" parent="CVCiPec276KEIEZ4r-IQ-121" vertex="1">
          <mxGeometry x="45" y="790" width="10" height="100" as="geometry" />
        </mxCell>
        <mxCell id="CVCiPec276KEIEZ4r-IQ-183" value="" style="html=1;points=[[0,0,0,0,5],[0,1,0,0,-5],[1,0,0,0,5],[1,1,0,0,-5]];perimeter=orthogonalPerimeter;outlineConnect=0;targetShapes=umlLifeline;portConstraint=eastwest;newEdgeStyle={&quot;curved&quot;:0,&quot;rounded&quot;:0};" parent="CVCiPec276KEIEZ4r-IQ-121" vertex="1">
          <mxGeometry x="45" y="930" width="10" height="110" as="geometry" />
        </mxCell>
        <mxCell id="CVCiPec276KEIEZ4r-IQ-122" value="офис" style="shape=umlLifeline;perimeter=lifelinePerimeter;whiteSpace=wrap;html=1;container=1;dropTarget=0;collapsible=0;recursiveResize=0;outlineConnect=0;portConstraint=eastwest;newEdgeStyle={&quot;curved&quot;:0,&quot;rounded&quot;:0};" parent="1" vertex="1">
          <mxGeometry x="2210" y="40" width="100" height="1360" as="geometry" />
        </mxCell>
        <mxCell id="CVCiPec276KEIEZ4r-IQ-171" value="" style="html=1;points=[[0,0,0,0,5],[0,1,0,0,-5],[1,0,0,0,5],[1,1,0,0,-5]];perimeter=orthogonalPerimeter;outlineConnect=0;targetShapes=umlLifeline;portConstraint=eastwest;newEdgeStyle={&quot;curved&quot;:0,&quot;rounded&quot;:0};" parent="CVCiPec276KEIEZ4r-IQ-122" vertex="1">
          <mxGeometry x="45" y="790" width="10" height="70" as="geometry" />
        </mxCell>
        <mxCell id="CVCiPec276KEIEZ4r-IQ-185" value="" style="html=1;points=[[0,0,0,0,5],[0,1,0,0,-5],[1,0,0,0,5],[1,1,0,0,-5]];perimeter=orthogonalPerimeter;outlineConnect=0;targetShapes=umlLifeline;portConstraint=eastwest;newEdgeStyle={&quot;curved&quot;:0,&quot;rounded&quot;:0};" parent="CVCiPec276KEIEZ4r-IQ-122" vertex="1">
          <mxGeometry x="45" y="930" width="10" height="80" as="geometry" />
        </mxCell>
        <mxCell id="CVCiPec276KEIEZ4r-IQ-206" value="" style="html=1;points=[[0,0,0,0,5],[0,1,0,0,-5],[1,0,0,0,5],[1,1,0,0,-5]];perimeter=orthogonalPerimeter;outlineConnect=0;targetShapes=umlLifeline;portConstraint=eastwest;newEdgeStyle={&quot;curved&quot;:0,&quot;rounded&quot;:0};" parent="CVCiPec276KEIEZ4r-IQ-122" vertex="1">
          <mxGeometry x="45" y="1190" width="10" height="80" as="geometry" />
        </mxCell>
        <mxCell id="CVCiPec276KEIEZ4r-IQ-123" value="" style="html=1;points=[[0,0,0,0,5],[0,1,0,0,-5],[1,0,0,0,5],[1,1,0,0,-5]];perimeter=orthogonalPerimeter;outlineConnect=0;targetShapes=umlLifeline;portConstraint=eastwest;newEdgeStyle={&quot;curved&quot;:0,&quot;rounded&quot;:0};" parent="1" vertex="1">
          <mxGeometry x="1175" y="100" width="10" height="1270" as="geometry" />
        </mxCell>
        <mxCell id="CVCiPec276KEIEZ4r-IQ-124" value="" style="endArrow=classic;html=1;rounded=0;exitX=1.083;exitY=0.016;exitDx=0;exitDy=0;exitPerimeter=0;" parent="1" edge="1">
          <mxGeometry width="50" height="50" relative="1" as="geometry">
            <mxPoint x="1187.75" y="140" as="sourcePoint" />
            <mxPoint x="1447.2499999999995" y="140" as="targetPoint" />
          </mxGeometry>
        </mxCell>
        <mxCell id="CVCiPec276KEIEZ4r-IQ-130" value="" style="endArrow=classic;html=1;rounded=0;exitX=1.083;exitY=0.016;exitDx=0;exitDy=0;exitPerimeter=0;" parent="1" edge="1">
          <mxGeometry width="50" height="50" relative="1" as="geometry">
            <mxPoint x="1185" y="580" as="sourcePoint" />
            <mxPoint x="1445" y="580" as="targetPoint" />
          </mxGeometry>
        </mxCell>
        <mxCell id="CVCiPec276KEIEZ4r-IQ-131" value="1: Открыть сайт" style="text;html=1;align=center;verticalAlign=middle;whiteSpace=wrap;rounded=0;" parent="1" vertex="1">
          <mxGeometry x="1235" y="100" width="155" height="30" as="geometry" />
        </mxCell>
        <mxCell id="CVCiPec276KEIEZ4r-IQ-132" value="" style="endArrow=classic;html=1;rounded=0;dashed=1;" parent="1" edge="1">
          <mxGeometry width="50" height="50" relative="1" as="geometry">
            <mxPoint x="1443.37" y="190" as="sourcePoint" />
            <mxPoint x="1185" y="190" as="targetPoint" />
          </mxGeometry>
        </mxCell>
        <mxCell id="CVCiPec276KEIEZ4r-IQ-135" value="&lt;font style=&quot;vertical-align: inherit;&quot;&gt;&lt;font style=&quot;vertical-align: inherit;&quot;&gt;2: Показать список услуг&lt;/font&gt;&lt;/font&gt;" style="text;html=1;align=center;verticalAlign=middle;whiteSpace=wrap;rounded=0;" parent="1" vertex="1">
          <mxGeometry x="1241" y="150" width="165" height="30" as="geometry" />
        </mxCell>
        <mxCell id="CVCiPec276KEIEZ4r-IQ-136" value="" style="endArrow=classic;html=1;rounded=0;" parent="1" edge="1">
          <mxGeometry width="50" height="50" relative="1" as="geometry">
            <mxPoint x="1185" y="239.99999999999994" as="sourcePoint" />
            <mxPoint x="1445" y="240" as="targetPoint" />
          </mxGeometry>
        </mxCell>
        <mxCell id="CVCiPec276KEIEZ4r-IQ-137" value="" style="endArrow=classic;html=1;rounded=0;dashed=1;" parent="1" edge="1">
          <mxGeometry width="50" height="50" relative="1" as="geometry">
            <mxPoint x="1445" y="300" as="sourcePoint" />
            <mxPoint x="1185" y="300" as="targetPoint" />
            <Array as="points">
              <mxPoint x="1405" y="300" />
            </Array>
          </mxGeometry>
        </mxCell>
        <mxCell id="CVCiPec276KEIEZ4r-IQ-139" value="&lt;font style=&quot;vertical-align: inherit;&quot;&gt;&lt;font style=&quot;vertical-align: inherit;&quot;&gt;3: Выбрать желаемую услугу&lt;/font&gt;&lt;/font&gt;" style="text;html=1;align=center;verticalAlign=middle;whiteSpace=wrap;rounded=0;" parent="1" vertex="1">
          <mxGeometry x="1235" y="200" width="170" height="30" as="geometry" />
        </mxCell>
        <mxCell id="CVCiPec276KEIEZ4r-IQ-140" value="4: Показать список оборудования, возможного к установке" style="text;html=1;align=center;verticalAlign=middle;whiteSpace=wrap;rounded=0;" parent="1" vertex="1">
          <mxGeometry x="1230" y="250" width="200" height="42.5" as="geometry" />
        </mxCell>
        <mxCell id="CVCiPec276KEIEZ4r-IQ-141" value="" style="endArrow=classic;html=1;rounded=0;exitX=1.083;exitY=0.016;exitDx=0;exitDy=0;exitPerimeter=0;" parent="1" edge="1">
          <mxGeometry width="50" height="50" relative="1" as="geometry">
            <mxPoint x="1185" y="370" as="sourcePoint" />
            <mxPoint x="1445" y="370" as="targetPoint" />
          </mxGeometry>
        </mxCell>
        <mxCell id="CVCiPec276KEIEZ4r-IQ-144" value="" style="endArrow=classic;html=1;rounded=0;dashed=1;" parent="1" edge="1">
          <mxGeometry width="50" height="50" relative="1" as="geometry">
            <mxPoint x="1446.7499999999998" y="530" as="sourcePoint" />
            <mxPoint x="1184.9999999999998" y="530" as="targetPoint" />
          </mxGeometry>
        </mxCell>
        <mxCell id="CVCiPec276KEIEZ4r-IQ-145" value="8: Запросить информацию (адрес, контакт)" style="text;html=1;align=center;verticalAlign=middle;whiteSpace=wrap;rounded=0;" parent="1" vertex="1">
          <mxGeometry x="1190" y="490" width="255" height="30" as="geometry" />
        </mxCell>
        <mxCell id="CVCiPec276KEIEZ4r-IQ-146" value="5: Выбрать оборудование к установке" style="text;html=1;align=center;verticalAlign=middle;whiteSpace=wrap;rounded=0;" parent="1" vertex="1">
          <mxGeometry x="1217.5" y="320" width="200" height="30" as="geometry" />
        </mxCell>
        <mxCell id="CVCiPec276KEIEZ4r-IQ-148" value="9: Ввести информацию" style="text;html=1;align=center;verticalAlign=middle;whiteSpace=wrap;rounded=0;" parent="1" vertex="1">
          <mxGeometry x="1235" y="540" width="155" height="30" as="geometry" />
        </mxCell>
        <mxCell id="CVCiPec276KEIEZ4r-IQ-153" value="" style="endArrow=classic;html=1;rounded=0;" parent="1" source="CVCiPec276KEIEZ4r-IQ-149" edge="1">
          <mxGeometry width="50" height="50" relative="1" as="geometry">
            <mxPoint x="1460" y="610" as="sourcePoint" />
            <mxPoint x="1814.4999999999995" y="610" as="targetPoint" />
          </mxGeometry>
        </mxCell>
        <mxCell id="CVCiPec276KEIEZ4r-IQ-154" value="10: Обработать платеж" style="text;html=1;align=center;verticalAlign=middle;whiteSpace=wrap;rounded=0;" parent="1" vertex="1">
          <mxGeometry x="1560" y="580" width="155" height="30" as="geometry" />
        </mxCell>
        <mxCell id="CVCiPec276KEIEZ4r-IQ-155" value="" style="endArrow=classic;html=1;rounded=0;dashed=1;" parent="1" source="CVCiPec276KEIEZ4r-IQ-150" edge="1">
          <mxGeometry width="50" height="50" relative="1" as="geometry">
            <mxPoint x="1810" y="675" as="sourcePoint" />
            <mxPoint x="1454.12" y="675" as="targetPoint" />
          </mxGeometry>
        </mxCell>
        <mxCell id="CVCiPec276KEIEZ4r-IQ-156" value="11: Подтверждение платежа" style="text;html=1;align=center;verticalAlign=middle;whiteSpace=wrap;rounded=0;" parent="1" vertex="1">
          <mxGeometry x="1557.5" y="640" width="160" height="30" as="geometry" />
        </mxCell>
        <mxCell id="CVCiPec276KEIEZ4r-IQ-158" value="" style="endArrow=classic;html=1;rounded=0;" parent="1" edge="1">
          <mxGeometry width="50" height="50" relative="1" as="geometry">
            <mxPoint x="1455" y="740" as="sourcePoint" />
            <mxPoint x="2050" y="740" as="targetPoint" />
          </mxGeometry>
        </mxCell>
        <mxCell id="CVCiPec276KEIEZ4r-IQ-160" value="12: Подготовить и подтвердить заказ" style="text;html=1;align=center;verticalAlign=middle;whiteSpace=wrap;rounded=0;" parent="1" vertex="1">
          <mxGeometry x="1590" y="710" width="240" height="30" as="geometry" />
        </mxCell>
        <mxCell id="CVCiPec276KEIEZ4r-IQ-161" value="" style="endArrow=classic;html=1;rounded=0;dashed=1;" parent="1" edge="1">
          <mxGeometry width="50" height="50" relative="1" as="geometry">
            <mxPoint x="2045" y="794.58" as="sourcePoint" />
            <mxPoint x="1449.666666666667" y="794.58" as="targetPoint" />
          </mxGeometry>
        </mxCell>
        <mxCell id="CVCiPec276KEIEZ4r-IQ-162" value="13: Заказ оформлен" style="text;html=1;align=center;verticalAlign=middle;whiteSpace=wrap;rounded=0;" parent="1" vertex="1">
          <mxGeometry x="1590" y="760" width="240" height="30" as="geometry" />
        </mxCell>
        <mxCell id="CVCiPec276KEIEZ4r-IQ-169" value="" style="endArrow=classic;html=1;rounded=0;" parent="1" source="CVCiPec276KEIEZ4r-IQ-163" edge="1">
          <mxGeometry width="50" height="50" relative="1" as="geometry">
            <mxPoint x="1460" y="850" as="sourcePoint" />
            <mxPoint x="2045" y="850" as="targetPoint" />
          </mxGeometry>
        </mxCell>
        <mxCell id="CVCiPec276KEIEZ4r-IQ-170" value="14: Проверить наличие товара" style="text;html=1;align=center;verticalAlign=middle;whiteSpace=wrap;rounded=0;" parent="1" vertex="1">
          <mxGeometry x="1590" y="820" width="240" height="30" as="geometry" />
        </mxCell>
        <mxCell id="CVCiPec276KEIEZ4r-IQ-172" value="" style="endArrow=classic;html=1;rounded=0;" parent="1" edge="1">
          <mxGeometry width="50" height="50" relative="1" as="geometry">
            <mxPoint x="2055" y="850" as="sourcePoint" />
            <mxPoint x="2255" y="850" as="targetPoint" />
          </mxGeometry>
        </mxCell>
        <mxCell id="CVCiPec276KEIEZ4r-IQ-173" value="15: Запросить наличие товара" style="text;html=1;align=center;verticalAlign=middle;whiteSpace=wrap;rounded=0;" parent="1" vertex="1">
          <mxGeometry x="2030" y="820" width="240" height="30" as="geometry" />
        </mxCell>
        <mxCell id="CVCiPec276KEIEZ4r-IQ-176" value="" style="endArrow=classic;html=1;rounded=0;dashed=1;" parent="1" target="CVCiPec276KEIEZ4r-IQ-164" edge="1">
          <mxGeometry width="50" height="50" relative="1" as="geometry">
            <mxPoint x="2255.33" y="890" as="sourcePoint" />
            <mxPoint x="1659.996666666667" y="890" as="targetPoint" />
          </mxGeometry>
        </mxCell>
        <mxCell id="CVCiPec276KEIEZ4r-IQ-177" value="16: Товар в наличии" style="text;html=1;align=center;verticalAlign=middle;whiteSpace=wrap;rounded=0;" parent="1" vertex="1">
          <mxGeometry x="2030" y="860" width="240" height="30" as="geometry" />
        </mxCell>
        <mxCell id="CVCiPec276KEIEZ4r-IQ-178" value="" style="endArrow=classic;html=1;rounded=0;dashed=1;" parent="1" edge="1">
          <mxGeometry width="50" height="50" relative="1" as="geometry">
            <mxPoint x="2045.33" y="920" as="sourcePoint" />
            <mxPoint x="1450" y="920" as="targetPoint" />
          </mxGeometry>
        </mxCell>
        <mxCell id="CVCiPec276KEIEZ4r-IQ-179" value="17: Товар в наличии" style="text;html=1;align=center;verticalAlign=middle;whiteSpace=wrap;rounded=0;" parent="1" vertex="1">
          <mxGeometry x="1590" y="890" width="240" height="30" as="geometry" />
        </mxCell>
        <mxCell id="CVCiPec276KEIEZ4r-IQ-181" value="" style="endArrow=classic;html=1;rounded=0;" parent="1" edge="1">
          <mxGeometry width="50" height="50" relative="1" as="geometry">
            <mxPoint x="1450" y="975" as="sourcePoint" />
            <mxPoint x="2049.5" y="975" as="targetPoint" />
          </mxGeometry>
        </mxCell>
        <mxCell id="CVCiPec276KEIEZ4r-IQ-184" value="18: Зарезервировать товар" style="text;html=1;align=center;verticalAlign=middle;whiteSpace=wrap;rounded=0;" parent="1" vertex="1">
          <mxGeometry x="1590" y="945" width="240" height="30" as="geometry" />
        </mxCell>
        <mxCell id="CVCiPec276KEIEZ4r-IQ-186" value="" style="endArrow=classic;html=1;rounded=0;" parent="1" edge="1">
          <mxGeometry width="50" height="50" relative="1" as="geometry">
            <mxPoint x="2050" y="989.57" as="sourcePoint" />
            <mxPoint x="2260" y="990" as="targetPoint" />
          </mxGeometry>
        </mxCell>
        <mxCell id="CVCiPec276KEIEZ4r-IQ-187" value="19: Зарезервировать товар" style="text;html=1;align=center;verticalAlign=middle;whiteSpace=wrap;rounded=0;" parent="1" vertex="1">
          <mxGeometry x="2030" y="950" width="240" height="30" as="geometry" />
        </mxCell>
        <mxCell id="CVCiPec276KEIEZ4r-IQ-189" value="" style="endArrow=classic;html=1;rounded=0;dashed=1;" parent="1" source="CVCiPec276KEIEZ4r-IQ-185" edge="1">
          <mxGeometry width="50" height="50" relative="1" as="geometry">
            <mxPoint x="2247.5" y="1040" as="sourcePoint" />
            <mxPoint x="2052.5" y="1040" as="targetPoint" />
          </mxGeometry>
        </mxCell>
        <mxCell id="CVCiPec276KEIEZ4r-IQ-190" value="20: Товар зарезервирован" style="text;html=1;align=center;verticalAlign=middle;whiteSpace=wrap;rounded=0;" parent="1" vertex="1">
          <mxGeometry x="2030" y="1005" width="240" height="30" as="geometry" />
        </mxCell>
        <mxCell id="CVCiPec276KEIEZ4r-IQ-191" value="" style="endArrow=classic;html=1;rounded=0;dashed=1;" parent="1" edge="1">
          <mxGeometry width="50" height="50" relative="1" as="geometry">
            <mxPoint x="2045.33" y="1070" as="sourcePoint" />
            <mxPoint x="1450" y="1070" as="targetPoint" />
          </mxGeometry>
        </mxCell>
        <mxCell id="CVCiPec276KEIEZ4r-IQ-192" value="21: Товар зарезервирован" style="text;html=1;align=center;verticalAlign=middle;whiteSpace=wrap;rounded=0;" parent="1" vertex="1">
          <mxGeometry x="1590" y="1030" width="240" height="30" as="geometry" />
        </mxCell>
        <mxCell id="CVCiPec276KEIEZ4r-IQ-193" value="специалист" style="shape=umlLifeline;perimeter=lifelinePerimeter;whiteSpace=wrap;html=1;container=1;dropTarget=0;collapsible=0;recursiveResize=0;outlineConnect=0;portConstraint=eastwest;newEdgeStyle={&quot;curved&quot;:0,&quot;rounded&quot;:0};" parent="1" vertex="1">
          <mxGeometry x="2440" y="40" width="100" height="1360" as="geometry" />
        </mxCell>
        <mxCell id="CVCiPec276KEIEZ4r-IQ-195" value="" style="html=1;points=[[0,0,0,0,5],[0,1,0,0,-5],[1,0,0,0,5],[1,1,0,0,-5]];perimeter=orthogonalPerimeter;outlineConnect=0;targetShapes=umlLifeline;portConstraint=eastwest;newEdgeStyle={&quot;curved&quot;:0,&quot;rounded&quot;:0};" parent="CVCiPec276KEIEZ4r-IQ-193" vertex="1">
          <mxGeometry x="45" y="1070" width="10" height="80" as="geometry" />
        </mxCell>
        <mxCell id="CVCiPec276KEIEZ4r-IQ-207" value="" style="html=1;points=[[0,0,0,0,5],[0,1,0,0,-5],[1,0,0,0,5],[1,1,0,0,-5]];perimeter=orthogonalPerimeter;outlineConnect=0;targetShapes=umlLifeline;portConstraint=eastwest;newEdgeStyle={&quot;curved&quot;:0,&quot;rounded&quot;:0};" parent="CVCiPec276KEIEZ4r-IQ-193" vertex="1">
          <mxGeometry x="45" y="1190" width="10" height="80" as="geometry" />
        </mxCell>
        <mxCell id="CVCiPec276KEIEZ4r-IQ-215" value="" style="html=1;points=[[0,0,0,0,5],[0,1,0,0,-5],[1,0,0,0,5],[1,1,0,0,-5]];perimeter=orthogonalPerimeter;outlineConnect=0;targetShapes=umlLifeline;portConstraint=eastwest;newEdgeStyle={&quot;curved&quot;:0,&quot;rounded&quot;:0};" parent="CVCiPec276KEIEZ4r-IQ-193" vertex="1">
          <mxGeometry x="45" y="1330" width="10" height="120" as="geometry" />
        </mxCell>
        <mxCell id="CVCiPec276KEIEZ4r-IQ-196" value="" style="endArrow=classic;html=1;rounded=0;" parent="1" edge="1">
          <mxGeometry width="50" height="50" relative="1" as="geometry">
            <mxPoint x="1455" y="1120" as="sourcePoint" />
            <mxPoint x="2489.5" y="1120" as="targetPoint" />
          </mxGeometry>
        </mxCell>
        <mxCell id="CVCiPec276KEIEZ4r-IQ-197" value="22: Согласовать время установки оборудования" style="text;html=1;align=center;verticalAlign=middle;whiteSpace=wrap;rounded=0;" parent="1" vertex="1">
          <mxGeometry x="1810" y="1090" width="240" height="30" as="geometry" />
        </mxCell>
        <mxCell id="CVCiPec276KEIEZ4r-IQ-198" value="" style="endArrow=classic;html=1;rounded=0;dashed=1;" parent="1" edge="1">
          <mxGeometry width="50" height="50" relative="1" as="geometry">
            <mxPoint x="2485.33" y="1170" as="sourcePoint" />
            <mxPoint x="1449.2500000000005" y="1170" as="targetPoint" />
          </mxGeometry>
        </mxCell>
        <mxCell id="CVCiPec276KEIEZ4r-IQ-199" value="23: Дата и время назначены" style="text;html=1;align=center;verticalAlign=middle;whiteSpace=wrap;rounded=0;" parent="1" vertex="1">
          <mxGeometry x="1810" y="1140" width="240" height="30" as="geometry" />
        </mxCell>
        <mxCell id="CVCiPec276KEIEZ4r-IQ-202" value="" style="endArrow=classic;html=1;rounded=0;" parent="1" edge="1">
          <mxGeometry width="50" height="50" relative="1" as="geometry">
            <mxPoint x="1445" y="1230" as="sourcePoint" />
            <mxPoint x="1185" y="1230" as="targetPoint" />
          </mxGeometry>
        </mxCell>
        <mxCell id="CVCiPec276KEIEZ4r-IQ-204" value="24: Подтвердить заказ" style="text;html=1;align=center;verticalAlign=middle;whiteSpace=wrap;rounded=0;" parent="1" vertex="1">
          <mxGeometry x="1197.5" y="1190" width="240" height="30" as="geometry" />
        </mxCell>
        <mxCell id="CVCiPec276KEIEZ4r-IQ-208" value="" style="endArrow=classic;html=1;rounded=0;dashed=1;entryX=1;entryY=1;entryDx=0;entryDy=-5;entryPerimeter=0;exitX=0;exitY=1;exitDx=0;exitDy=-5;exitPerimeter=0;" parent="1" source="CVCiPec276KEIEZ4r-IQ-207" target="CVCiPec276KEIEZ4r-IQ-206" edge="1">
          <mxGeometry width="50" height="50" relative="1" as="geometry">
            <mxPoint x="2481.5" y="1300" as="sourcePoint" />
            <mxPoint x="2279" y="1300" as="targetPoint" />
          </mxGeometry>
        </mxCell>
        <mxCell id="CVCiPec276KEIEZ4r-IQ-212" value="" style="endArrow=classic;html=1;rounded=0;entryX=0;entryY=0;entryDx=0;entryDy=5;entryPerimeter=0;" parent="1" source="CVCiPec276KEIEZ4r-IQ-206" target="CVCiPec276KEIEZ4r-IQ-207" edge="1">
          <mxGeometry width="50" height="50" relative="1" as="geometry">
            <mxPoint x="2270" y="1240" as="sourcePoint" />
            <mxPoint x="2480" y="1240.43" as="targetPoint" />
          </mxGeometry>
        </mxCell>
        <mxCell id="CVCiPec276KEIEZ4r-IQ-213" value="25: Забрать оборудование" style="text;html=1;align=center;verticalAlign=middle;whiteSpace=wrap;rounded=0;" parent="1" vertex="1">
          <mxGeometry x="2250" y="1200" width="240" height="30" as="geometry" />
        </mxCell>
        <mxCell id="CVCiPec276KEIEZ4r-IQ-214" value="26: Подготовить к установке" style="text;html=1;align=center;verticalAlign=middle;whiteSpace=wrap;rounded=0;" parent="1" vertex="1">
          <mxGeometry x="2250" y="1270" width="240" height="30" as="geometry" />
        </mxCell>
        <mxCell id="CVCiPec276KEIEZ4r-IQ-216" value="" style="endArrow=classic;html=1;rounded=0;" parent="1" edge="1">
          <mxGeometry width="50" height="50" relative="1" as="geometry">
            <mxPoint x="2485" y="1380" as="sourcePoint" />
            <mxPoint x="1185" y="1380" as="targetPoint" />
          </mxGeometry>
        </mxCell>
        <mxCell id="CVCiPec276KEIEZ4r-IQ-217" value="27: Установить оборудование" style="text;html=1;align=center;verticalAlign=middle;whiteSpace=wrap;rounded=0;" parent="1" vertex="1">
          <mxGeometry x="1810" y="1339" width="240" height="30" as="geometry" />
        </mxCell>
        <mxCell id="CVCiPec276KEIEZ4r-IQ-218" value="" style="endArrow=classic;html=1;rounded=0;dashed=1;" parent="1" edge="1">
          <mxGeometry width="50" height="50" relative="1" as="geometry">
            <mxPoint x="1185" y="1480" as="sourcePoint" />
            <mxPoint x="2485" y="1480" as="targetPoint" />
          </mxGeometry>
        </mxCell>
        <mxCell id="CVCiPec276KEIEZ4r-IQ-219" value="28: Принять заказ" style="text;html=1;align=center;verticalAlign=middle;whiteSpace=wrap;rounded=0;" parent="1" vertex="1">
          <mxGeometry x="1810" y="1440" width="240" height="30" as="geometry" />
        </mxCell>
        <mxCell id="CVCiPec276KEIEZ4r-IQ-220" value="&lt;font style=&quot;vertical-align: inherit;&quot;&gt;&lt;font style=&quot;vertical-align: inherit;&quot;&gt;Установка системы видеонаблюдения&lt;/font&gt;&lt;/font&gt;" style="shape=umlFrame;whiteSpace=wrap;html=1;pointerEvents=0;width=140;height=30;" parent="1" vertex="1">
          <mxGeometry x="1090" y="-20" width="1550" height="1610" as="geometry" />
        </mxCell>
        <mxCell id="b9OQVoJCKVu9rGhb326X-1" value="6: Обновить корзину покупок" style="text;html=1;align=center;verticalAlign=middle;whiteSpace=wrap;rounded=0;" vertex="1" parent="1">
          <mxGeometry x="1212.5" y="380" width="200" height="30" as="geometry" />
        </mxCell>
        <mxCell id="b9OQVoJCKVu9rGhb326X-3" value="" style="endArrow=classic;html=1;rounded=0;dashed=1;" edge="1" parent="1">
          <mxGeometry width="50" height="50" relative="1" as="geometry">
            <mxPoint x="1445" y="420" as="sourcePoint" />
            <mxPoint x="1185" y="420" as="targetPoint" />
          </mxGeometry>
        </mxCell>
        <mxCell id="b9OQVoJCKVu9rGhb326X-4" value="" style="endArrow=classic;html=1;rounded=0;exitX=1.083;exitY=0.016;exitDx=0;exitDy=0;exitPerimeter=0;" edge="1" parent="1">
          <mxGeometry width="50" height="50" relative="1" as="geometry">
            <mxPoint x="1185.25" y="480" as="sourcePoint" />
            <mxPoint x="1445" y="480" as="targetPoint" />
          </mxGeometry>
        </mxCell>
        <mxCell id="b9OQVoJCKVu9rGhb326X-5" value="7: Прейти к оформлению заказа" style="text;html=1;align=center;verticalAlign=middle;whiteSpace=wrap;rounded=0;" vertex="1" parent="1">
          <mxGeometry x="1217.5" y="435" width="200" height="30" as="geometry" />
        </mxCell>
      </root>
    </mxGraphModel>
  </diagram>
</mxfile>
